<?xml version="1.0" standalone="no"?>
<!DOCTYPE svg PUBLIC "-//W3C//DTD SVG 20010904//EN"
 "http://www.w3.org/TR/2001/REC-SVG-20010904/DTD/svg10.dtd">
<svg version="1.0" xmlns="http://www.w3.org/2000/svg"
 width="835.000000pt" height="196.000000pt" viewBox="0 0 835.000000 196.000000"
 preserveAspectRatio="xMidYMid meet">

<g transform="translate(0.000000,196.000000) scale(0.100000,-0.100000)"
fill="#000000" stroke="none">
<path d="M3684 1470 c-17 -5 -38 -18 -47 -28 -9 -9 -149 -224 -311 -477 l-295
-460 106 -3 c77 -2 110 1 118 10 7 7 112 173 235 368 122 195 228 360 234 367
8 9 41 -36 136 -189 69 -111 126 -205 128 -210 2 -4 -107 -9 -242 -10 l-245
-3 52 -82 52 -83 254 -2 254 -3 51 -83 50 -82 108 0 c60 0 108 3 107 8 -2 20
-598 928 -619 944 -31 23 -85 30 -126 18z"/>
<path d="M623 1455 c-193 -42 -346 -207 -373 -403 -35 -251 132 -490 378 -541
33 -7 183 -11 390 -11 296 0 345 2 403 18 357 99 476 545 216 805 -66 66 -175
123 -262 137 -94 15 -677 11 -752 -5z m789 -188 c72 -35 141 -111 164 -179 21
-63 16 -187 -10 -237 -28 -53 -96 -120 -151 -149 l-50 -27 -355 0 -355 0 -51
27 c-67 35 -138 115 -160 180 -22 68 -15 177 15 236 45 87 122 150 215 173 17
4 177 7 356 6 l325 -2 57 -28z"/>
<path d="M1880 985 l0 -485 90 0 90 0 2 398 3 397 320 3 c315 2 321 2 365 -20
48 -25 90 -88 90 -137 0 -42 -39 -109 -78 -133 -36 -22 -45 -23 -319 -26
l-282 -3 275 -240 275 -239 137 0 c110 1 134 3 121 13 -8 7 -91 75 -183 152
l-168 140 70 6 c121 11 191 44 255 120 138 160 82 411 -112 506 l-56 28 -447
3 -448 3 0 -486z"/>
<path d="M4740 1460 c-109 -20 -202 -71 -276 -153 -243 -270 -111 -700 243
-792 45 -12 126 -15 375 -15 l318 0 54 83 53 82 -376 5 c-363 5 -378 6 -421
27 -74 37 -117 79 -152 151 -28 57 -33 77 -33 137 1 125 69 230 184 284 l56
26 312 3 312 3 50 80 c28 44 51 82 51 84 0 8 -703 3 -750 -5z"/>
<path d="M5600 1016 c0 -250 3 -462 6 -471 17 -43 40 -45 501 -44 l438 0 52
82 52 82 -435 3 -434 2 0 400 0 400 -90 0 -90 0 0 -454z"/>
<path d="M7010 1460 c-324 -58 -494 -406 -344 -702 59 -116 197 -221 326 -247
34 -7 169 -10 367 -9 l315 3 53 83 53 82 -358 0 c-399 0 -420 3 -504 65 -44
32 -108 123 -108 153 0 9 86 12 398 12 l397 0 52 83 53 82 -450 3 c-300 1
-450 6 -450 13 0 22 40 86 77 123 21 21 63 51 93 65 l55 26 312 3 312 3 50 80
c28 44 51 82 51 84 0 8 -703 3 -750 -5z"/>
<path d="M7881 1444 c-74 -62 -33 -184 61 -184 96 0 147 82 101 160 -32 56
-111 67 -162 24z m124 -17 c39 -33 39 -91 1 -123 -45 -39 -103 -29 -130 24
-19 36 -10 78 22 102 33 26 75 25 107 -3z"/>
<path d="M7910 1370 c0 -33 4 -60 10 -60 6 0 10 9 10 20 0 11 4 20 10 20 5 0
14 -9 20 -20 6 -11 17 -20 26 -20 11 0 12 5 6 18 -5 9 -7 32 -5 51 6 38 -6 51
-49 51 -27 0 -28 -1 -28 -60z m55 20 c0 -22 -29 -18 -33 3 -3 14 1 18 15 15
10 -2 18 -10 18 -18z"/>
</g>
</svg>
