<?xml version="1.0" standalone="no"?>
<!DOCTYPE svg PUBLIC "-//W3C//DTD SVG 20010904//EN"
 "http://www.w3.org/TR/2001/REC-SVG-20010904/DTD/svg10.dtd">
<svg version="1.0" xmlns="http://www.w3.org/2000/svg"
 width="1920.000000pt" height="776.000000pt" viewBox="0 0 1920.000000 776.000000"
 preserveAspectRatio="xMidYMid meet">
<metadata>
Created by potrace 1.16, written by Peter Selinger 2001-2019
</metadata>
<g transform="translate(0.000000,776.000000) scale(0.100000,-0.100000)"
fill="#000000" stroke="none">
<path d="M3540 4515 l0 -1955 285 0 285 0 0 1955 0 1955 -285 0 -285 0 0
-1955z"/>
<path d="M1760 5570 l0 -590 285 0 285 0 0 590 0 590 -285 0 -285 0 0 -590z"/>
<path d="M13800 5176 l0 -465 -51 50 c-67 65 -124 103 -222 149 -126 58 -210
75 -362 75 -156 -1 -231 -18 -360 -80 -290 -141 -467 -441 -482 -816 -17 -415
166 -764 481 -918 111 -55 181 -71 321 -78 255 -12 470 69 636 238 l66 68 7
-52 c3 -29 6 -80 6 -114 0 -100 -18 -93 231 -93 l219 0 0 1250 0 1250 -245 0
-245 0 0 -464z m-361 -571 c171 -45 299 -178 357 -371 14 -45 19 -91 18 -199
0 -124 -3 -149 -27 -220 -48 -146 -134 -248 -260 -310 -185 -90 -410 -53 -552
92 -224 227 -215 687 17 900 115 105 295 149 447 108z"/>
<path d="M850 3245 l0 -1955 290 0 290 0 0 1955 0 1955 -290 0 -290 0 0 -1955z"/>
<path d="M2650 4610 l0 -590 285 0 285 0 0 590 0 590 -285 0 -285 0 0 -590z"/>
<path d="M6660 4975 c-188 -40 -348 -130 -458 -257 l-40 -47 -6 82 c-4 45 -7
105 -9 132 l-2 50 -222 3 -223 2 0 -1305 0 -1305 245 0 245 0 0 518 0 518 55
-53 c159 -154 373 -230 620 -221 184 8 330 62 470 175 259 210 384 591 319
974 -61 355 -292 630 -604 719 -97 28 -296 36 -390 15z m145 -370 c265 -70
424 -379 361 -707 -19 -96 -40 -149 -94 -231 -130 -199 -389 -267 -609 -161
-99 47 -170 119 -222 226 -171 346 -19 786 300 872 72 19 191 20 264 1z"/>
<path d="M8640 4975 c-197 -41 -349 -133 -474 -288 -329 -407 -272 -1100 117
-1417 73 -60 216 -133 307 -157 91 -25 330 -25 419 0 160 44 264 102 373 208
53 52 79 71 83 61 3 -7 5 -41 5 -75 0 -34 3 -86 6 -114 l7 -53 223 0 224 0 0
900 0 900 -224 0 -223 0 -7 -52 c-3 -29 -6 -82 -6 -118 0 -93 -9 -100 -53 -46
-73 88 -218 179 -357 224 -131 43 -292 53 -420 27z m453 -375 c130 -40 239
-138 299 -268 41 -91 58 -173 58 -293 0 -189 -53 -333 -165 -444 -95 -94 -200
-137 -335 -138 -236 0 -420 153 -487 404 -23 87 -22 271 1 359 39 146 141 286
246 340 122 63 262 77 383 40z"/>
<path d="M11308 4980 c-212 -38 -393 -149 -506 -308 l-30 -42 -6 67 c-3 38 -8
107 -12 156 l-6 87 -224 0 -224 0 0 -900 0 -900 245 0 245 0 0 518 c0 312 4
534 11 561 46 203 256 371 463 371 196 0 295 -96 325 -314 7 -47 11 -283 11
-607 l0 -529 246 0 245 0 -3 638 -4 637 -26 97 c-66 243 -207 395 -418 454
-65 18 -266 27 -332 14z"/>
<path d="M15285 4981 c-327 -53 -580 -289 -679 -634 -74 -258 -51 -547 64
-784 108 -223 280 -372 510 -445 65 -20 95 -23 230 -23 184 0 235 12 389 86
89 44 116 63 192 138 l89 88 0 -51 c0 -28 3 -88 7 -133 l6 -83 223 0 224 0 0
900 0 900 -224 0 -223 0 -6 -82 c-4 -46 -7 -107 -7 -136 l0 -52 -78 77 c-107
108 -232 178 -387 218 -71 18 -259 27 -330 16z m400 -376 c176 -46 311 -192
360 -390 23 -91 23 -256 1 -349 -60 -252 -246 -408 -486 -408 -237 0 -422 154
-484 403 -21 84 -21 262 0 349 46 197 182 348 355 394 72 19 181 20 254 1z"/>
<path d="M17435 4976 c-187 -37 -319 -114 -409 -236 -83 -112 -115 -282 -82
-424 54 -228 236 -375 565 -456 173 -43 270 -76 322 -108 123 -78 97 -236 -49
-298 -60 -25 -185 -35 -290 -23 -136 15 -249 50 -400 125 -73 36 -135 64 -136
63 -10 -11 -77 -322 -72 -334 8 -21 153 -91 269 -130 172 -57 252 -70 442 -70
204 0 287 16 422 81 191 92 297 240 324 454 39 316 -172 535 -620 641 -270 63
-357 123 -348 238 3 47 9 59 40 87 114 105 430 84 684 -45 34 -17 66 -31 71
-31 10 0 82 274 82 308 0 29 -154 95 -325 138 -125 32 -376 42 -490 20z"/>
<path d="M1760 3160 l0 -590 285 0 285 0 0 590 0 590 -285 0 -285 0 0 -590z"/>
<path d="M2650 3400 l0 -280 285 0 285 0 0 280 0 280 -285 0 -285 0 0 -280z"/>
<path d="M2650 2200 l0 -590 285 0 285 0 0 590 0 590 -285 0 -285 0 0 -590z"/>
</g>
</svg>
