<?xml version="1.0" standalone="no"?>
<!DOCTYPE svg PUBLIC "-//W3C//DTD SVG 20010904//EN"
 "http://www.w3.org/TR/2001/REC-SVG-20010904/DTD/svg10.dtd">
<svg version="1.0" xmlns="http://www.w3.org/2000/svg"
 width="1920.000000pt" height="1034.000000pt" viewBox="0 0 1920.000000 1034.000000"
 preserveAspectRatio="xMidYMid meet">

<g transform="translate(0.000000,1034.000000) scale(0.100000,-0.100000)"
fill="#000000" stroke="none">
<path d="M9485 5292 c-44 -16 -207 -75 -362 -133 l-282 -104 -100 -205 c-337
-692 -602 -1502 -690 -2105 -45 -314 -46 -596 -1 -770 66 -257 242 -446 461
-495 89 -20 275 -8 382 24 222 66 471 226 798 512 l105 92 18 -70 c68 -263
272 -470 536 -545 101 -28 404 -26 517 4 177 47 318 118 494 249 105 79 282
229 344 293 21 23 42 41 45 41 4 0 12 -30 19 -66 34 -188 151 -379 287 -469
79 -53 157 -75 263 -75 139 0 258 40 396 133 124 84 373 351 505 542 l35 50 6
-145 c13 -294 89 -474 233 -547 39 -20 70 -27 135 -31 229 -13 384 82 867 530
284 263 492 510 646 768 13 21 33 29 116 49 56 13 149 42 207 66 58 23 105 41
105 40 0 -2 -32 -56 -71 -121 -141 -237 -245 -474 -290 -662 -24 -100 -28
-262 -10 -342 33 -139 145 -279 253 -316 188 -65 449 40 798 321 63 51 161
137 218 190 l102 97 0 -117 c0 -133 18 -447 28 -486 l7 -25 283 66 c155 37
284 69 286 71 3 2 7 85 11 184 7 215 19 347 46 515 34 217 51 249 261 490 246
282 413 437 513 476 45 17 47 17 73 -3 58 -43 44 -113 -98 -488 -167 -441
-223 -654 -223 -845 -1 -417 313 -574 740 -370 183 87 361 220 576 429 l127
124 0 151 -1 151 -86 -95 c-255 -281 -427 -410 -547 -410 -41 0 -53 5 -81 33
-58 58 -57 144 2 332 14 44 70 200 124 348 215 581 256 813 173 984 -31 64
-109 136 -171 157 -147 50 -350 -15 -578 -186 -113 -85 -424 -383 -575 -551
-47 -52 -87 -93 -88 -92 -13 12 97 387 194 663 36 101 64 185 62 187 -2 1
-147 -26 -323 -60 l-319 -61 -77 -180 c-162 -379 -265 -714 -302 -983 l-12
-83 -143 -134 c-263 -247 -319 -284 -425 -284 -65 0 -88 9 -135 53 -83 79 -82
255 4 531 42 135 166 486 313 891 60 165 108 302 106 304 -2 2 -57 0 -122 -4
l-118 -7 -45 -81 c-134 -241 -318 -436 -492 -521 -74 -37 -203 -74 -215 -63
-3 4 6 39 20 79 71 196 103 394 78 471 -14 41 -52 92 -82 107 -37 20 -116 29
-178 20 -171 -24 -296 -140 -396 -365 -68 -155 -85 -327 -41 -421 27 -58 81
-115 146 -152 25 -14 47 -27 49 -28 5 -4 -83 -126 -172 -236 -77 -97 -379
-401 -491 -496 -81 -68 -138 -95 -211 -100 -110 -6 -156 50 -163 195 -8 172
38 369 254 1087 84 281 151 514 148 518 -3 4 -35 8 -71 8 l-66 0 -265 -147
c-146 -82 -269 -149 -273 -151 -4 -2 -22 23 -40 55 -112 197 -323 280 -576
227 -268 -55 -624 -282 -838 -533 -199 -235 -335 -502 -380 -749 l-17 -87 -76
-78 c-110 -113 -284 -261 -366 -312 -189 -117 -422 -136 -602 -48 -75 36 -161
121 -206 203 -33 59 -88 213 -88 243 0 7 55 29 123 51 360 113 660 266 825
420 79 74 154 178 183 255 30 79 37 227 14 307 -63 219 -284 347 -575 331
-298 -16 -568 -164 -807 -442 -227 -263 -355 -541 -392 -850 l-9 -80 -104 -98
c-291 -277 -447 -381 -605 -409 -130 -22 -224 16 -287 115 -82 128 -103 263
-85 552 l12 200 71 80 c664 740 957 1367 956 2042 0 248 -55 399 -155 427 -11
3 -56 -7 -100 -22z m5 -320 c31 -39 44 -99 43 -208 -3 -329 -184 -811 -461
-1233 -75 -114 -271 -366 -278 -358 -6 6 99 473 152 677 121 465 261 848 379
1045 66 110 120 135 165 77z m3747 -1417 c38 -11 62 -27 91 -60 55 -62 73
-128 73 -258 -1 -235 -64 -472 -201 -752 -87 -177 -155 -281 -246 -372 -189
-191 -405 -186 -496 12 -21 45 -23 64 -23 200 0 107 6 174 19 235 76 354 303
785 484 920 112 84 198 105 299 75z m-2250 -21 c16 -11 39 -42 53 -70 22 -44
25 -61 25 -159 -2 -266 -132 -457 -405 -595 -53 -27 -240 -100 -255 -100 -13
0 -3 191 14 292 25 142 52 232 101 330 83 167 183 278 285 316 47 18 150 10
182 -14z"/>
</g>
</svg>
